# Blender v2.79 (sub 0) OBJ File: ''
# www.blender.org
mtllib multiple-meshes-input.mtl
o Cube.002_Cube.084
v -1.000000 -0.000000 2.000000
v -1.000000 2.000000 2.000000
v -1.000000 2.000000 0.000000
v -1.000000 0.000000 0.000000
v 1.000000 2.000000 0.000000
v 1.000000 0.000000 0.000000
v 1.000000 2.000000 2.000000
v 1.000000 -0.000000 2.000000
v -1.000000 0.000000 -2.000000
v -1.000000 2.000000 -2.000000
v -1.000000 2.000001 -4.000000
v -1.000000 0.000001 -4.000000
v 1.000000 2.000001 -4.000000
v 1.000000 0.000001 -4.000000
v 1.000000 2.000000 -2.000000
v 1.000000 0.000000 -2.000000
v 3.000000 2.000000 -2.000000
v 3.000000 0.000000 -2.000000
v 3.000000 2.000000 0.000000
v 3.000000 0.000000 0.000000
v -1.000000 4.000000 0.000001
v -1.000000 4.000000 -1.999999
v 1.000000 4.000000 -1.999999
v 1.000000 4.000000 0.000001
vt 0.990000 0.410000
vt 0.810000 0.410000
vt 0.810000 0.590000
vt 0.990000 0.590000
vt 0.190000 0.210000
vt 0.010000 0.210000
vt 0.010000 0.390000
vt 0.190000 0.390000
vt 0.390000 0.010000
vt 0.210000 0.010000
vt 0.210000 0.190000
vt 0.390000 0.190000
vt 0.390000 0.210000
vt 0.210000 0.210000
vt 0.210000 0.390000
vt 0.390000 0.390000
vt 0.190000 0.410000
vt 0.010000 0.410000
vt 0.010000 0.590000
vt 0.190000 0.590000
vt 0.590000 0.010000
vt 0.410000 0.010000
vt 0.410000 0.190000
vt 0.590000 0.190000
vt 0.590000 0.210000
vt 0.410000 0.210000
vt 0.410000 0.390000
vt 0.590000 0.390000
vt 0.390000 0.410000
vt 0.210000 0.410000
vt 0.210000 0.590000
vt 0.390000 0.590000
vt 0.590000 0.410000
vt 0.410000 0.410000
vt 0.410000 0.590000
vt 0.590000 0.590000
vt 0.190000 0.610000
vt 0.010000 0.610000
vt 0.010000 0.790000
vt 0.190000 0.790000
vt 0.790000 0.010000
vt 0.610000 0.010000
vt 0.610000 0.190000
vt 0.790000 0.190000
vt 0.390000 0.610000
vt 0.210000 0.610000
vt 0.210000 0.790000
vt 0.390000 0.790000
vt 0.790000 0.210000
vt 0.610000 0.210000
vt 0.610000 0.390000
vt 0.790000 0.390000
vt 0.590000 0.610000
vt 0.410000 0.610000
vt 0.410000 0.790000
vt 0.590000 0.790000
vt 0.790000 0.410000
vt 0.610000 0.410000
vt 0.610000 0.590000
vt 0.790000 0.590000
vt 0.790000 0.610000
vt 0.610000 0.610000
vt 0.610000 0.790000
vt 0.790000 0.790000
vt 0.190000 0.810000
vt 0.010000 0.810000
vt 0.010000 0.990000
vt 0.190000 0.990000
vt 0.990000 0.010000
vt 0.810000 0.010000
vt 0.810000 0.190000
vt 0.990000 0.190000
vt 0.990000 0.210000
vt 0.810000 0.210000
vt 0.810000 0.390000
vt 0.990000 0.390000
vt 0.390000 0.810000
vt 0.210000 0.810000
vt 0.210000 0.990000
vt 0.390000 0.990000
vt 0.590000 0.810000
vt 0.410000 0.810000
vt 0.410000 0.990000
vt 0.590000 0.990000
vt 0.190000 0.010000
vt 0.010000 0.010000
vt 0.010000 0.190000
vt 0.190000 0.190000
vn -1.0000 0.0000 0.0000
vn 1.0000 0.0000 0.0000
vn 0.0000 -0.0000 1.0000
vn 0.0000 -1.0000 -0.0000
vn 0.0000 1.0000 0.0000
vn 0.0000 0.0000 -1.0000
usemtl None
s 1
f 1/1/1 2/2/1 3/3/1 4/4/1
f 6/5/2 5/6/2 7/7/2 8/8/2
f 8/9/3 7/10/3 2/11/3 1/12/3
f 4/13/4 6/14/4 8/15/4 1/16/4
f 5/17/5 3/18/5 2/19/5 7/20/5
f 9/21/1 10/22/1 11/23/1 12/24/1
f 12/25/6 11/26/6 13/27/6 14/28/6
f 14/29/2 13/30/2 15/31/2 16/32/2
f 12/33/4 14/34/4 16/35/4 9/36/4
f 13/37/5 11/38/5 10/39/5 15/40/5
f 16/41/6 15/42/6 17/43/6 18/44/6
f 18/45/2 17/46/2 19/47/2 20/48/2
f 20/49/3 19/50/3 5/51/3 6/52/3
f 16/53/4 18/54/4 20/55/4 6/56/4
f 17/57/5 15/58/5 5/59/5 19/60/5
f 3/61/1 21/62/1 22/63/1 10/64/1
f 10/65/6 22/66/6 23/67/6 15/68/6
f 15/69/2 23/70/2 24/71/2 5/72/2
f 5/73/3 24/74/3 21/75/3 3/76/3
f 23/77/5 22/78/5 21/79/5 24/80/5
f 4/81/1 3/82/1 10/83/1 9/84/1
f 9/85/4 16/86/4 6/87/4 4/88/4
o Plane
v -30.000000 -0.000005 30.000000
v 30.000000 -0.000005 30.000000
v 30.000000 0.000005 -30.000000
v -30.000000 0.000005 -30.000000
vt 0.990000 0.010000
vt 0.010000 0.010000
vt 0.010000 0.990000
vt 0.990000 0.990000
vn 0.0000 1.0000 0.0000
usemtl None_AO_Map1
s 1
f 25/89/7 26/90/7 27/91/7 28/92/7
